<svg xmlns="http://www.w3.org/2000/svg" width="37" height="37" fill="none" viewBox="0 0 37 37"><path fill="#fff" fill-rule="evenodd" d="M18.6789 32.1302C16.2038 32.1302 13.76 31.4535 11.6107 30.1729L11.0256 29.8237L5.83389 31.2148L7.21774 26.0527L6.85786 25.4622C5.53415 23.2868 4.83325 20.8054 4.83325 18.2845C4.83325 10.6491 11.0444 4.43888 18.6789 4.43888C26.3134 4.43888 32.5254 10.6491 32.5254 18.2845C32.5254 25.919 26.3134 32.1302 18.6789 32.1302ZM18.6789 1.2117C9.26569 1.2117 1.60607 8.87042 1.60607 18.2845C1.60607 21.1635 2.34466 24.0003 3.74735 26.5329L1.26953 35.7782L10.5634 33.2887C13.0618 34.6439 15.8529 35.3582 18.6789 35.3582C28.093 35.3582 35.7517 27.6986 35.7517 18.2845C35.7517 8.87042 28.093 1.2117 18.6789 1.2117Z" clip-rule="evenodd"/><path fill="#EBEBEB" d="M11.6107 30.1729L11.3545 30.6022L11.3548 30.6024L11.6107 30.1729ZM11.0256 29.8237L11.2817 29.3944L11.1003 29.2861L10.8962 29.3408L11.0256 29.8237ZM5.83389 31.2148L5.35094 31.0853L5.12667 31.9219L5.96329 31.6977L5.83389 31.2148ZM7.21774 26.0527L7.70068 26.1822L7.75613 25.9754L7.6447 25.7925L7.21774 26.0527ZM6.85786 25.4622L6.43073 25.7221L6.4309 25.7224L6.85786 25.4622ZM3.74735 26.5329L4.23031 26.6623L4.28258 26.4672L4.18474 26.2906L3.74735 26.5329ZM1.26953 35.7782L0.786575 35.6488L0.562394 36.4853L1.3989 36.2612L1.26953 35.7782ZM10.5634 33.2887L10.8018 32.8492L10.6265 32.7542L10.434 32.8058L10.5634 33.2887ZM18.6789 31.6302C16.2949 31.6302 13.9394 30.9784 11.8666 29.7433L11.3548 30.6024C13.5806 31.9286 16.1126 32.6302 18.6789 32.6302V31.6302ZM11.8669 29.7435L11.2817 29.3944L10.7694 30.2531L11.3545 30.6022L11.8669 29.7435ZM10.8962 29.3408L5.70449 30.7318L5.96329 31.6977L11.155 30.3067L10.8962 29.3408ZM6.31684 31.3442L7.70068 26.1822L6.73479 25.9233L5.35094 31.0853L6.31684 31.3442ZM7.6447 25.7925L7.28483 25.202L6.4309 25.7224L6.79077 26.3129L7.6447 25.7925ZM7.285 25.2023C6.00833 23.1042 5.33325 20.7126 5.33325 18.2845H4.33325C4.33325 20.8983 5.05997 23.4694 6.43073 25.7221L7.285 25.2023ZM5.33325 18.2845C5.33325 10.9253 11.3205 4.93888 18.6789 4.93888V3.93888C10.7683 3.93888 4.33325 10.373 4.33325 18.2845H5.33325ZM18.6789 4.93888C26.0373 4.93888 32.0254 10.9253 32.0254 18.2845H33.0254C33.0254 10.3729 26.5895 3.93888 18.6789 3.93888V4.93888ZM32.0254 18.2845C32.0254 25.6428 26.0373 31.6302 18.6789 31.6302V32.6302C26.5895 32.6302 33.0254 26.1952 33.0254 18.2845H32.0254ZM18.6789 0.7117C8.98956 0.7117 1.10607 8.59426 1.10607 18.2845H2.10607C2.10607 9.14658 9.54181 1.7117 18.6789 1.7117V0.7117ZM1.10607 18.2845C1.10607 21.2491 1.86663 24.1692 3.30996 26.7751L4.18474 26.2906C2.82269 23.8314 2.10607 21.0779 2.10607 18.2845H1.10607ZM3.2644 26.4034L0.786575 35.6488L1.75249 35.9077L4.23031 26.6623L3.2644 26.4034ZM1.3989 36.2612L10.6927 33.7717L10.434 32.8058L1.14016 35.2953L1.3989 36.2612ZM10.325 33.7283C12.8958 35.1226 15.7686 35.8582 18.6789 35.8582V34.8582C15.9371 34.8582 13.2279 34.1651 10.8018 32.8492L10.325 33.7283ZM18.6789 35.8582C28.3692 35.8582 36.2517 27.9747 36.2517 18.2845H35.2517C35.2517 27.4225 27.8168 34.8582 18.6789 34.8582V35.8582ZM36.2517 18.2845C36.2517 8.59428 28.3691 0.7117 18.6789 0.7117V1.7117C27.8169 1.7117 35.2517 9.14656 35.2517 18.2845H36.2517Z"/><path fill="#fff" fill-rule="evenodd" d="M25.0302 20.659C24.3275 20.2381 23.413 19.7696 22.5847 20.1079C21.9502 20.3682 21.5445 21.3616 21.1335 21.8696C20.9217 22.1308 20.6704 22.1711 20.3447 22.0401C17.962 21.0906 16.1348 19.4986 14.8192 17.307C14.5966 16.9651 14.6361 16.6968 14.9053 16.38C15.302 15.9124 15.8019 15.3811 15.9086 14.7502C16.0163 14.1202 15.7202 13.3834 15.4599 12.8216C15.127 12.1037 14.7545 11.0806 14.0357 10.675C13.3752 10.3016 12.5047 10.5108 11.916 10.99C10.9001 11.8165 10.4092 13.1133 10.4244 14.3984C10.428 14.7637 10.4729 15.1281 10.559 15.4799C10.7636 16.3279 11.1549 17.1195 11.5965 17.8724C11.9285 18.4387 12.2902 18.9897 12.6797 19.5192C13.9549 21.2513 15.5416 22.7572 17.3786 23.8816C18.2958 24.4443 19.2848 24.937 20.3079 25.2754C21.4566 25.6541 22.4788 26.0499 23.719 25.8138C25.0167 25.5679 26.2965 24.7638 26.8116 23.5137C26.9642 23.144 27.0404 22.7311 26.9561 22.3399C26.7793 21.5313 25.6844 21.0502 25.0302 20.659Z" clip-rule="evenodd"/><path stroke="#EBEBEB" d="M25.0302 20.659C24.3275 20.2381 23.413 19.7696 22.5847 20.1079C21.9502 20.3682 21.5445 21.3616 21.1335 21.8696C20.9217 22.1308 20.6704 22.1711 20.3447 22.0401C17.962 21.0906 16.1348 19.4986 14.8192 17.307C14.5966 16.9651 14.6361 16.6968 14.9053 16.38C15.302 15.9124 15.8019 15.3811 15.9086 14.7502C16.0163 14.1202 15.7202 13.3834 15.4599 12.8216C15.127 12.1037 14.7545 11.0806 14.0357 10.675C13.3752 10.3016 12.5047 10.5108 11.916 10.99C10.9001 11.8165 10.4092 13.1133 10.4244 14.3984C10.428 14.7637 10.4729 15.1281 10.559 15.4799C10.7636 16.3279 11.1549 17.1195 11.5965 17.8724C11.9285 18.4387 12.2902 18.9897 12.6797 19.5192C13.9549 21.2513 15.5416 22.7572 17.3786 23.8816C18.2958 24.4443 19.2848 24.937 20.3079 25.2754C21.4566 25.6541 22.4788 26.0499 23.719 25.8138C25.0167 25.5679 26.2965 24.7638 26.8116 23.5137C26.9642 23.144 27.0404 22.7311 26.9561 22.3399C26.7793 21.5313 25.6844 21.0502 25.0302 20.659"/></svg>